<svg id="Capa_1" enable-background="new 0 0 512 512" height="512" viewBox="0 0 512 512" width="512" xmlns="http://www.w3.org/2000/svg"><g><path d="m300.616 406.203-8.381 3.188c-3.872 1.472-5.816 5.805-4.344 9.676 1.139 2.994 3.987 4.836 7.011 4.836.887 0 1.788-.158 2.665-.492l8.381-3.188c3.872-1.472 5.816-5.805 4.344-9.676-1.473-3.873-5.81-5.817-9.676-4.344z"/><path d="m333.672 393.628-8.381 3.188c-3.871 1.473-5.815 5.806-4.343 9.677 1.139 2.994 3.987 4.835 7.011 4.835.887 0 1.788-.158 2.666-.492l8.381-3.188c3.871-1.473 5.815-5.806 4.343-9.677-1.473-3.872-5.807-5.82-9.677-4.343z"/><path d="m366.731 381.053-8.381 3.188c-3.871 1.473-5.815 5.806-4.343 9.677 1.139 2.994 3.987 4.835 7.011 4.835.887 0 1.788-.158 2.666-.492l8.381-3.188c3.871-1.473 5.815-5.806 4.343-9.677-1.473-3.874-5.806-5.819-9.677-4.343z"/><path d="m399.79 368.479-8.381 3.188c-3.872 1.472-5.816 5.805-4.344 9.676 1.139 2.994 3.987 4.836 7.011 4.836.887 0 1.788-.158 2.665-.492l8.381-3.188c3.872-1.472 5.816-5.805 4.344-9.676-1.474-3.873-5.811-5.82-9.676-4.344z"/><path d="m432.847 355.903-8.381 3.188c-3.872 1.472-5.816 5.805-4.344 9.676 1.139 2.994 3.987 4.836 7.011 4.836.887 0 1.788-.158 2.665-.492l8.381-3.188c3.872-1.472 5.816-5.805 4.344-9.676-1.473-3.872-5.811-5.818-9.676-4.344z"/><path d="m134.143 49.211c0 4.143 3.358 7.5 7.5 7.5h127.069c4.143 0 7.5-3.357 7.5-7.5s-3.357-7.5-7.5-7.5h-127.069c-4.142 0-7.5 3.357-7.5 7.5z"/><path d="m156.059 172.411h170.381c4.143 0 7.5-3.357 7.5-7.5s-3.357-7.5-7.5-7.5h-170.381c-4.142 0-7.5 3.357-7.5 7.5s3.358 7.5 7.5 7.5z"/><path d="m84.521 187.607c2.096 0 4.096-.877 5.516-2.418l28.001-30.392c2.807-3.046 2.613-7.791-.434-10.598-3.046-2.807-7.791-2.612-10.598.434l-22.486 24.405-8.484-9.21c-2.808-3.046-7.552-3.241-10.598-.434s-3.24 7.551-.434 10.598l14 15.196c1.422 1.542 3.422 2.419 5.517 2.419z"/><path d="m156.059 253.176h170.381c4.143 0 7.5-3.357 7.5-7.5s-3.357-7.5-7.5-7.5h-170.381c-4.142 0-7.5 3.357-7.5 7.5s3.358 7.5 7.5 7.5z"/><path d="m65.005 250.758 14 15.196c1.42 1.541 3.42 2.418 5.516 2.418s4.096-.877 5.516-2.418l28.001-30.393c2.807-3.047 2.613-7.791-.434-10.598s-7.791-2.612-10.598.434l-22.486 24.406-8.484-9.21c-2.808-3.046-7.552-3.242-10.598-.434-3.045 2.808-3.239 7.552-.433 10.599z"/><path d="m65.005 331.522 14 15.196c1.42 1.541 3.42 2.418 5.516 2.418s4.096-.877 5.516-2.418l28.001-30.393c2.807-3.047 2.613-7.791-.434-10.598s-7.791-2.612-10.598.434l-22.486 24.406-8.484-9.21c-2.808-3.046-7.552-3.242-10.598-.434-3.045 2.808-3.239 7.553-.433 10.599z"/><path d="m65.005 412.287 14 15.195c1.42 1.541 3.42 2.418 5.516 2.418s4.096-.877 5.516-2.418l28.001-30.392c2.807-3.046 2.613-7.791-.434-10.598-3.046-2.807-7.791-2.612-10.598.434l-22.486 24.405-8.485-9.209c-2.807-3.046-7.552-3.242-10.598-.434-3.044 2.808-3.238 7.553-.432 10.599z"/><path d="m489.312 350.705c-7.569-19.903-29.805-29.887-49.712-22.314l-49.401 18.792v-323.03c0-13.318-10.835-24.153-24.154-24.153h-168.435c-4.142 0-7.5 3.357-7.5 7.5s3.358 7.5 7.5 7.5h168.435c5.047 0 9.153 4.106 9.153 9.153v59.269h-340.042v-59.269c0-5.047 4.106-9.153 9.153-9.153h123.315c4.142 0 7.5-3.357 7.5-7.5s-3.358-7.5-7.5-7.5h-123.315c-13.318 0-24.153 10.835-24.153 24.153v377.254c0 4.143 3.358 7.5 7.5 7.5s7.5-3.357 7.5-7.5v-302.985h340.043v254.466l-6.91 2.628-61.543-66.285c-3.652-3.937-9.259-5.247-14.278-3.337l-18.431 7.01c-6.76 2.573-10.167 10.166-7.595 16.926l3.466 9.11h-113.849c-4.142 0-7.5 3.357-7.5 7.5s3.358 7.5 7.5 7.5h119.554l18.885 49.645-15.523 5.905c-.177.065-.373.061-.546-.018l-54.527-24.864c-2.66-1.213-5.752-1.312-8.485-.272l-25.021 9.518c-3.597 1.368-6.177 4.441-6.902 8.221-.725 3.778.535 7.588 3.368 10.188l8.106 7.442h-38.909c-4.142 0-7.5 3.357-7.5 7.5s3.358 7.5 7.5 7.5c55.559-.092 53.184.218 54.982-.244l49.243 45.209c9.234 8.479 22.217 10.928 33.858 6.499l81.057-30.833v52.51c0 5.047-4.106 9.153-9.153 9.153h-321.737c-5.047 0-9.153-4.106-9.153-9.153v-56.452c0-4.143-3.358-7.5-7.5-7.5s-7.5 3.357-7.5 7.5v56.452c0 13.318 10.835 24.153 24.153 24.153h321.737c13.318 0 24.153-10.835 24.153-24.153v-58.216l37.293-14.186c3.871-1.473 5.815-5.805 4.343-9.677-1.473-3.873-5.806-5.817-9.677-4.343l-133.349 50.726c-6.341 2.413-13.385 1.059-18.381-3.528l-68.667-63.043 17.434-6.632 53.012 24.174c3.793 1.729 8.204 1.873 12.102.389l160.625-61.1c12.158-4.621 25.735 1.469 30.359 13.627 4.623 12.155-1.47 25.736-13.628 30.359l-10.656 4.054c-3.871 1.473-5.815 5.805-4.343 9.677 1.473 3.87 5.804 5.813 9.677 4.343l10.655-4.054c19.902-7.57 29.887-29.804 22.314-49.711zm-192.698-50.34 56.548 60.905-44.644 16.981-27.388-71.997z"/></g></svg>